<svg width="32" height="30" viewBox="0 0 32 30" fill="none" xmlns="http://www.w3.org/2000/svg">
<path d="M16.0034 7.30838C11.6634 7.30838 8.16271 10.7425 8.16271 15C8.16271 19.2575 11.6634 22.6916 16.0034 22.6916C20.3434 22.6916 23.8441 19.2575 23.8441 15C23.8441 10.7425 20.3434 7.30838 16.0034 7.30838ZM16.0034 20.0006C13.1988 20.0006 10.9059 17.758 10.9059 15C10.9059 12.242 13.1919 9.99944 16.0034 9.99944C18.8149 9.99944 21.1009 12.242 21.1009 15C21.1009 17.758 18.808 20.0006 16.0034 20.0006ZM25.9936 6.99375C25.9936 7.99119 25.1748 8.7878 24.1648 8.7878C23.1481 8.7878 22.336 7.98449 22.336 6.99375C22.336 6.00301 23.1549 5.19971 24.1648 5.19971C25.1748 5.19971 25.9936 6.00301 25.9936 6.99375ZM31.1866 8.81457C31.0706 6.41136 30.5111 4.28261 28.7164 2.52873C26.9285 0.774852 24.7585 0.225929 22.3087 0.105433C19.7839 -0.0351445 12.2161 -0.0351445 9.69127 0.105433C7.24831 0.219235 5.0783 0.768158 3.28361 2.52203C1.48892 4.27591 0.936179 6.40466 0.813348 8.80788C0.670046 11.2847 0.670046 18.7086 0.813348 21.1854C0.929355 23.5886 1.48892 25.7174 3.28361 27.4713C5.0783 29.2251 7.24148 29.7741 9.69127 29.8946C12.2161 30.0351 19.7839 30.0351 22.3087 29.8946C24.7585 29.7808 26.9285 29.2318 28.7164 27.4713C30.5042 25.7174 31.0638 23.5886 31.1866 21.1854C31.3299 18.7086 31.3299 11.2914 31.1866 8.81457ZM27.9248 23.843C27.3925 25.1551 26.3621 26.1659 25.0178 26.6947C23.0047 27.478 18.228 27.2972 16.0034 27.2972C13.7788 27.2972 8.99523 27.4713 6.989 26.6947C5.65151 26.1726 4.6211 25.1618 4.08201 23.843C3.28361 21.8682 3.46785 17.1823 3.46785 15C3.46785 12.8177 3.29043 8.12507 4.08201 6.15698C4.61427 4.84492 5.64469 3.8341 6.989 3.30525C9.00206 2.52203 13.7788 2.70278 16.0034 2.70278C18.228 2.70278 23.0116 2.52873 25.0178 3.30525C26.3553 3.8274 27.3857 4.83822 27.9248 6.15698C28.7232 8.13176 28.5389 12.8177 28.5389 15C28.5389 17.1823 28.7232 21.8749 27.9248 23.843Z" fill="white"/>
</svg>
