<svg width="191" height="37" viewBox="0 0 191 37" fill="none" xmlns="http://www.w3.org/2000/svg">
<mask id="mask0_21_112" style="mask-type:luminance" maskUnits="userSpaceOnUse" x="12" y="0" width="24" height="37">
<path d="M12.0695 0.193848H35.6105V36.9509H12.0695V0.193848Z" fill="white"/>
</mask>
<g mask="url(#mask0_21_112)">
<path d="M23.739 1.91786C18.2906 3.07271 14.7477 1.24833 13.2615 0.680527C19.829 5.63674 25.397 3.31742 28.6319 4.20418C30.8674 4.81597 32.502 6.97993 31.4984 14.1798C30.3944 22.1043 27.1609 31.4434 25.2141 31.4434C22.338 31.4434 12.1121 17.8258 14.085 15.8997C15.42 14.5964 17.6774 16.5225 17.6774 16.5225C17.6774 16.5225 15.2247 12.7418 12.7459 14.7036C11.9334 15.3471 12.0242 17.2416 12.4077 18.7387C14.6184 27.3794 23.266 36.9509 25.3159 36.9509C29.4843 36.9509 34.0886 20.8449 35.352 10.5627C36.115 4.34303 35.1554 1.97835 32.9104 0.798761C30.646 -0.393203 29.6163 0.670904 23.739 1.91786Z" fill="#20AD96"/>
</g>
<mask id="mask1_21_112" style="mask-type:luminance" maskUnits="userSpaceOnUse" x="0" y="0" width="26" height="37">
<path d="M0 0H25.6953V36.9509H0V0Z" fill="white"/>
</mask>
<g mask="url(#mask1_21_112)">
<path d="M10.1407 31.4435C8.19532 31.4435 4.38296 22.1635 3.85778 14.1799C3.23499 4.73355 5.67666 3.46459 9.99083 4.152C13.2258 4.66756 21.4004 9.81212 25.5592 5.47182C25.5592 5.47182 22.2721 7.22471 13.9778 2.42248C5.31921 -2.59147 -0.160805 0.206281 0.00417322 10.5628C0.169151 20.922 5.87188 36.951 10.0389 36.951C11.1072 36.951 13.9668 34.3512 16.7742 30.6406L15.7774 26.6385C13.5557 29.3235 11.2763 31.4435 10.1407 31.4435Z" fill="#20AD96"/>
</g>
<path d="M22.6088 14.7036C20.13 12.7418 17.6774 16.5225 17.6774 16.5225C17.6774 16.5225 19.9348 14.5964 21.2698 15.8997C22.1634 16.7714 20.5576 20.0393 18.263 23.3567C18.8226 24.1514 19.4165 24.9433 20.0228 25.7035C21.2945 23.4516 22.3545 21.0608 22.9484 18.7387C23.3306 17.2415 23.4213 15.3471 22.6088 14.7036Z" fill="#20AD96"/>
<path d="M15.8338 26.5683C15.8159 26.5917 15.7967 26.6137 15.7774 26.6384L16.7741 30.6405C17.0766 30.2404 17.3777 29.8266 17.6774 29.4032C17.0422 28.5027 16.4208 27.5513 15.8338 26.5683Z" fill="#20AD96"/>
<path d="M50.7933 28.3061C48.9346 28.3061 47.2312 27.8758 45.6845 27.0137C44.1365 26.149 42.9074 24.9433 41.9945 23.3952C41.0844 21.8444 40.6307 20.1039 40.6307 18.1709C40.6307 16.2352 41.0844 14.5002 41.9945 12.9631C42.9074 11.4233 44.1365 10.2231 45.6845 9.36112C47.2312 8.49636 48.9346 8.06329 50.7933 8.06329C52.6521 8.06329 54.3541 8.49636 55.9021 9.36112C57.4529 10.2231 58.6738 11.4233 59.5646 12.9631C60.4555 14.5002 60.901 16.2352 60.901 18.1709C60.901 20.1039 60.45 21.8444 59.5481 23.3952C58.649 24.9433 57.4309 26.149 55.8911 27.0137C54.3513 27.8758 52.6521 28.3061 50.7933 28.3061ZM50.7933 23.9122C52.3689 23.9122 53.6309 23.3884 54.5768 22.3394C55.5254 21.2876 56.0011 19.8977 56.0011 18.1709C56.0011 16.4222 55.5254 15.0281 54.5768 13.986C53.6309 12.9453 52.3689 12.4242 50.7933 12.4242C49.1985 12.4242 47.9254 12.9411 46.9768 13.975C46.031 15.0061 45.558 16.4043 45.558 18.1709C45.558 19.917 46.031 21.3096 46.9768 22.3504C47.9254 23.3925 49.1985 23.9122 50.7933 23.9122Z" fill="#20AD96"/>
<path d="M62.6163 20.2222C62.6163 18.6095 62.9202 17.1921 63.5292 15.9713C64.141 14.7504 64.9728 13.8128 66.0259 13.1556C67.0776 12.4998 68.2503 12.1713 69.5454 12.1713C70.5751 12.1713 71.5169 12.3885 72.372 12.8202C73.2258 13.2532 73.8981 13.8348 74.3903 14.5634V7.27142H79.2021V28.1081H74.3903V25.8534C73.9393 26.6055 73.2959 27.2062 72.46 27.6572C71.6241 28.1081 70.6521 28.3336 69.5454 28.3336C68.2503 28.3336 67.0776 28.0009 66.0259 27.3327C64.9728 26.6659 64.141 25.7187 63.5292 24.4896C62.9202 23.2619 62.6163 21.839 62.6163 20.2222ZM74.3903 20.2552C74.3903 19.0536 74.0562 18.105 73.3894 17.4121C72.7212 16.7164 71.9101 16.3672 70.9532 16.3672C69.9963 16.3672 69.1838 16.7109 68.517 17.3956C67.8489 18.0816 67.5162 19.0233 67.5162 20.2222C67.5162 21.4251 67.8489 22.3779 68.517 23.0818C69.1838 23.7857 69.9963 24.1377 70.9532 24.1377C71.9101 24.1377 72.7212 23.7912 73.3894 23.0983C74.0562 22.4026 74.3903 21.454 74.3903 20.2552Z" fill="#20AD96"/>
<path d="M89.844 28.3336C88.3042 28.3336 86.9183 28.0064 85.6865 27.3492C84.4574 26.6934 83.4923 25.7544 82.7884 24.5336C82.0845 23.3128 81.7325 21.8871 81.7325 20.2552C81.7325 18.6384 82.0872 17.2168 82.7994 15.9878C83.5143 14.7559 84.4904 13.8128 85.7305 13.1556C86.9692 12.4998 88.3592 12.1713 89.8989 12.1713C91.4387 12.1713 92.8273 12.4998 94.0674 13.1556C95.3061 13.8128 96.2808 14.7559 96.993 15.9878C97.7079 17.2168 98.0653 18.6384 98.0653 20.2552C98.0653 21.8692 97.7038 23.2908 96.982 24.5226C96.2588 25.7517 95.2731 26.6934 94.0234 27.3492C92.7764 28.0064 91.3837 28.3336 89.844 28.3336ZM89.844 24.1652C90.7637 24.1652 91.546 23.8283 92.1921 23.1533C92.8411 22.4796 93.1655 21.5131 93.1655 20.2552C93.1655 18.9945 92.8493 18.0266 92.2196 17.3516C91.5927 16.6779 90.8187 16.3397 89.8989 16.3397C88.9599 16.3397 88.1804 16.6738 87.5618 17.3406C86.9417 18.0046 86.6324 18.9766 86.6324 20.2552C86.6324 21.5131 86.9362 22.4796 87.5453 23.1533C88.1571 23.8283 88.9228 24.1652 89.844 24.1652Z" fill="#20AD96"/>
<path d="M110.197 12.2263C112.037 12.2263 113.505 12.8243 114.602 14.019C115.702 15.211 116.252 16.8484 116.252 18.9299V28.1081H111.468V19.5788C111.468 18.527 111.194 17.709 110.648 17.1261C110.105 16.5432 109.374 16.2517 108.454 16.2517C107.533 16.2517 106.8 16.5432 106.254 17.1261C105.711 17.709 105.441 18.527 105.441 19.5788V28.1081H100.623V12.3967H105.441V14.481C105.927 13.7853 106.584 13.2354 107.409 12.8312C108.237 12.4284 109.166 12.2263 110.197 12.2263Z" fill="#20AD96"/>
<path d="M128.359 24.0277V28.1081H125.906C124.16 28.1081 122.801 27.6819 121.826 26.8268C120.85 25.973 120.363 24.5803 120.363 22.6474V16.3947H118.449V12.3967H120.363V8.56924H125.175V12.3967H128.331V16.3947H125.175V22.7023C125.175 23.1725 125.286 23.5107 125.51 23.7197C125.737 23.9259 126.113 24.0277 126.638 24.0277H128.359Z" fill="#20AD96"/>
<path d="M138.183 28.3336C136.644 28.3336 135.258 28.0064 134.026 27.3492C132.797 26.6934 131.832 25.7544 131.128 24.5336C130.424 23.3128 130.072 21.8871 130.072 20.2552C130.072 18.6384 130.427 17.2168 131.139 15.9878C131.854 14.7559 132.83 13.8128 134.07 13.1556C135.309 12.4998 136.699 12.1713 138.238 12.1713C139.778 12.1713 141.167 12.4998 142.407 13.1556C143.646 13.8128 144.62 14.7559 145.333 15.9878C146.047 17.2168 146.405 18.6384 146.405 20.2552C146.405 21.8692 146.043 23.2908 145.322 24.5226C144.598 25.7517 143.613 26.6934 142.363 27.3492C141.116 28.0064 139.723 28.3336 138.183 28.3336ZM138.183 24.1652C139.103 24.1652 139.886 23.8283 140.532 23.1533C141.181 22.4796 141.505 21.5131 141.505 20.2552C141.505 18.9945 141.189 18.0266 140.559 17.3516C139.932 16.6779 139.158 16.3397 138.238 16.3397C137.299 16.3397 136.52 16.6738 135.901 17.3406C135.281 18.0046 134.972 18.9766 134.972 20.2552C134.972 21.5131 135.276 22.4796 135.885 23.1533C136.497 23.8283 137.262 24.1652 138.183 24.1652Z" fill="#20AD96"/>
<path d="M159.043 28.1081L154.935 20.6456H153.78V28.1081H148.963V8.34378H157.047C158.604 8.34378 159.931 8.61737 161.028 9.16317C162.128 9.70622 162.949 10.4527 163.492 11.4014C164.038 12.3472 164.311 13.4017 164.311 14.5634C164.311 15.8805 163.939 17.0546 163.195 18.0885C162.454 19.1196 161.361 19.851 159.917 20.2827L164.482 28.1081H159.043ZM153.78 17.2416H156.766C157.646 17.2416 158.306 17.0257 158.746 16.5927C159.189 16.161 159.411 15.5506 159.411 14.7614C159.411 14.0108 159.189 13.4196 158.746 12.9907C158.306 12.559 157.646 12.3417 156.766 12.3417H153.78V17.2416Z" fill="#20AD96"/>
<path d="M169.744 10.7634C168.897 10.7634 168.206 10.516 167.671 10.021C167.139 9.52335 166.873 8.90743 166.873 8.17328C166.873 7.42263 167.139 6.79847 167.671 6.30353C168.206 5.80585 168.897 5.55563 169.744 5.55563C170.569 5.55563 171.248 5.80585 171.784 6.30353C172.319 6.79847 172.587 7.42263 172.587 8.17328C172.587 8.90743 172.319 9.52335 171.784 10.021C171.248 10.516 170.569 10.7634 169.744 10.7634ZM172.136 12.3967V28.1081H167.319V12.3967H172.136Z" fill="#20AD96"/>
<path d="M182.779 28.3336C181.239 28.3336 179.853 28.0064 178.621 27.3492C177.392 26.6934 176.427 25.7544 175.723 24.5336C175.019 23.3128 174.667 21.8871 174.667 20.2552C174.667 18.6384 175.022 17.2168 175.734 15.9878C176.449 14.7559 177.425 13.8128 178.665 13.1556C179.904 12.4998 181.294 12.1713 182.834 12.1713C184.373 12.1713 185.762 12.4998 187.002 13.1556C188.241 13.8128 189.215 14.7559 189.928 15.9878C190.643 17.2168 191 18.6384 191 20.2552C191 21.8692 190.638 23.2908 189.917 24.5226C189.193 25.7517 188.208 26.6934 186.958 27.3492C185.711 28.0064 184.318 28.3336 182.779 28.3336ZM182.779 24.1652C183.698 24.1652 184.481 23.8283 185.127 23.1533C185.776 22.4796 186.1 21.5131 186.1 20.2552C186.1 18.9945 185.784 18.0266 185.154 17.3516C184.527 16.6779 183.753 16.3397 182.834 16.3397C181.895 16.3397 181.115 16.6738 180.496 17.3406C179.876 18.0046 179.567 18.9766 179.567 20.2552C179.567 21.5131 179.871 22.4796 180.48 23.1533C181.092 23.8283 181.857 24.1652 182.779 24.1652Z" fill="#20AD96"/>
</svg>
