<svg width="31" height="30" viewBox="0 0 31 30" fill="none" xmlns="http://www.w3.org/2000/svg">
<path d="M26.0068 4.35937C23.146 1.54687 19.3361 0 15.2873 0C6.93015 0 0.129727 6.66964 0.129727 14.8661C0.129727 17.4844 0.826156 20.0424 2.15074 22.2991L0 30L8.03624 27.9308C10.2484 29.1161 12.7405 29.7388 15.2805 29.7388H15.2873C23.6376 29.7388 30.5882 23.0692 30.5882 14.8728C30.5882 10.9018 28.8676 7.17187 26.0068 4.35937ZM15.2873 27.2344C13.0205 27.2344 10.8015 26.6384 8.86922 25.5134L8.41177 25.2455L3.64601 26.471L4.91597 21.9107L4.61555 21.442C3.35242 19.4732 2.69013 17.2031 2.69013 14.8661C2.69013 8.0558 8.34349 2.51116 15.2941 2.51116C18.6602 2.51116 21.8214 3.79687 24.1975 6.13393C26.5735 8.47098 28.0347 11.5714 28.0278 14.8728C28.0278 21.6897 22.2311 27.2344 15.2873 27.2344ZM22.197 17.9799C21.8214 17.7924 19.9575 16.8951 19.6092 16.7746C19.261 16.6473 19.0084 16.5871 18.7558 16.9621C18.5032 17.3371 17.7794 18.1674 17.5541 18.4219C17.3356 18.6696 17.1103 18.7031 16.7348 18.5156C14.5089 17.4241 13.0478 16.567 11.5798 14.096C11.1907 13.4397 11.969 13.4866 12.6928 12.067C12.8157 11.8192 12.7542 11.6049 12.6586 11.4174C12.563 11.2299 11.8051 9.40179 11.4911 8.65848C11.1838 7.93527 10.8697 8.03571 10.6376 8.02232C10.4191 8.00893 10.1665 8.00893 9.91387 8.00893C9.66124 8.00893 9.25158 8.10268 8.90336 8.47098C8.55515 8.84598 7.57878 9.7433 7.57878 11.5714C7.57878 13.3996 8.9375 15.1674 9.12185 15.4152C9.31303 15.6629 11.7915 19.4129 15.5945 21.0268C17.9979 22.0446 18.9401 22.1317 20.1418 21.9576C20.8724 21.8504 22.3813 21.0603 22.6954 20.1897C23.0095 19.3192 23.0095 18.5759 22.9139 18.4219C22.8251 18.2545 22.5725 18.1607 22.197 17.9799Z" fill="white"/>
</svg>
